<mxfile host="app.diagrams.net" agent="Mozilla/5.0 (Windows NT 10.0; Win64; x64) AppleWebKit/537.36 (KHTML, like Gecko) Chrome/131.0.0.0 Safari/537.36" version="26.0.5">
  <diagram name="Page-1" id="vv1wycAP7zbFMY4Gxzvk">
    <mxGraphModel dx="3452" dy="1405" grid="1" gridSize="10" guides="1" tooltips="1" connect="1" arrows="1" fold="1" page="1" pageScale="1" pageWidth="827" pageHeight="1169" background="#CCCCCC" math="0" shadow="1">
      <root>
        <mxCell id="0" />
        <mxCell id="1" parent="0" />
        <mxCell id="ah4166-5UXn88flBTKYX-97" value="" style="whiteSpace=wrap;html=1;aspect=fixed;" vertex="1" parent="1">
          <mxGeometry x="-185" y="2282.5" width="130" height="130" as="geometry" />
        </mxCell>
        <mxCell id="ah4166-5UXn88flBTKYX-94" value="" style="rounded=0;whiteSpace=wrap;html=1;" vertex="1" parent="1">
          <mxGeometry x="-450" y="2130" width="120" height="60" as="geometry" />
        </mxCell>
        <mxCell id="ah4166-5UXn88flBTKYX-95" value="" style="rounded=0;whiteSpace=wrap;html=1;" vertex="1" parent="1">
          <mxGeometry x="-190" y="2130" width="120" height="60" as="geometry" />
        </mxCell>
        <mxCell id="ah4166-5UXn88flBTKYX-96" value="" style="rounded=0;whiteSpace=wrap;html=1;" vertex="1" parent="1">
          <mxGeometry x="80" y="2130" width="120" height="60" as="geometry" />
        </mxCell>
        <mxCell id="ah4166-5UXn88flBTKYX-93" value="" style="shape=cylinder3;whiteSpace=wrap;html=1;boundedLbl=1;backgroundOutline=1;size=15;" vertex="1" parent="1">
          <mxGeometry x="-120" y="1980" width="120" height="90" as="geometry" />
        </mxCell>
        <mxCell id="ah4166-5UXn88flBTKYX-87" value="" style="ellipse;whiteSpace=wrap;html=1;aspect=fixed;" vertex="1" parent="1">
          <mxGeometry x="-455" y="1785" width="80" height="80" as="geometry" />
        </mxCell>
        <mxCell id="ah4166-5UXn88flBTKYX-88" value="" style="ellipse;whiteSpace=wrap;html=1;aspect=fixed;" vertex="1" parent="1">
          <mxGeometry x="-340" y="1775" width="80" height="80" as="geometry" />
        </mxCell>
        <mxCell id="ah4166-5UXn88flBTKYX-89" value="" style="ellipse;whiteSpace=wrap;html=1;aspect=fixed;" vertex="1" parent="1">
          <mxGeometry x="-220" y="1785" width="80" height="80" as="geometry" />
        </mxCell>
        <mxCell id="ah4166-5UXn88flBTKYX-90" value="" style="ellipse;whiteSpace=wrap;html=1;aspect=fixed;" vertex="1" parent="1">
          <mxGeometry x="10" y="1770" width="80" height="80" as="geometry" />
        </mxCell>
        <mxCell id="ah4166-5UXn88flBTKYX-91" value="" style="ellipse;whiteSpace=wrap;html=1;aspect=fixed;" vertex="1" parent="1">
          <mxGeometry x="140" y="1770" width="80" height="80" as="geometry" />
        </mxCell>
        <mxCell id="ah4166-5UXn88flBTKYX-92" value="" style="ellipse;whiteSpace=wrap;html=1;aspect=fixed;" vertex="1" parent="1">
          <mxGeometry x="250" y="1775" width="80" height="80" as="geometry" />
        </mxCell>
        <mxCell id="ah4166-5UXn88flBTKYX-86" value="" style="whiteSpace=wrap;html=1;aspect=fixed;" vertex="1" parent="1">
          <mxGeometry x="-215" y="1385" width="80" height="80" as="geometry" />
        </mxCell>
        <mxCell id="ah4166-5UXn88flBTKYX-81" value="" style="ellipse;whiteSpace=wrap;html=1;aspect=fixed;" vertex="1" parent="1">
          <mxGeometry x="-220" y="1115" width="80" height="80" as="geometry" />
        </mxCell>
        <mxCell id="ah4166-5UXn88flBTKYX-80" value="" style="ellipse;whiteSpace=wrap;html=1;aspect=fixed;" vertex="1" parent="1">
          <mxGeometry x="-60" y="1115" width="80" height="80" as="geometry" />
        </mxCell>
        <mxCell id="ah4166-5UXn88flBTKYX-79" value="" style="ellipse;whiteSpace=wrap;html=1;aspect=fixed;" vertex="1" parent="1">
          <mxGeometry x="-45" y="990" width="80" height="80" as="geometry" />
        </mxCell>
        <mxCell id="ah4166-5UXn88flBTKYX-78" value="" style="ellipse;whiteSpace=wrap;html=1;aspect=fixed;" vertex="1" parent="1">
          <mxGeometry x="-230" y="980" width="80" height="80" as="geometry" />
        </mxCell>
        <mxCell id="ah4166-5UXn88flBTKYX-82" value="" style="ellipse;whiteSpace=wrap;html=1;aspect=fixed;" vertex="1" parent="1">
          <mxGeometry x="-385" y="1115" width="80" height="80" as="geometry" />
        </mxCell>
        <mxCell id="ah4166-5UXn88flBTKYX-66" value="" style="shape=cylinder3;whiteSpace=wrap;html=1;boundedLbl=1;backgroundOutline=1;size=15;" vertex="1" parent="1">
          <mxGeometry x="-310" y="747.5" width="230" height="170" as="geometry" />
        </mxCell>
        <mxCell id="ah4166-5UXn88flBTKYX-64" value="" style="whiteSpace=wrap;html=1;aspect=fixed;" vertex="1" parent="1">
          <mxGeometry x="-220" y="605" width="80" height="80" as="geometry" />
        </mxCell>
        <mxCell id="ah4166-5UXn88flBTKYX-63" value="" style="shape=cylinder3;whiteSpace=wrap;html=1;boundedLbl=1;backgroundOutline=1;size=15;" vertex="1" parent="1">
          <mxGeometry x="370" y="262" width="150" height="118" as="geometry" />
        </mxCell>
        <mxCell id="ah4166-5UXn88flBTKYX-62" value="" style="rounded=1;whiteSpace=wrap;html=1;" vertex="1" parent="1">
          <mxGeometry x="690" y="255" width="120" height="60" as="geometry" />
        </mxCell>
        <mxCell id="ah4166-5UXn88flBTKYX-1" value="Globally Available" style="html=1;overflow=block;blockSpacing=1;whiteSpace=wrap;fontSize=16.7;spacing=0;strokeColor=#147eba;strokeOpacity=100;fillOpacity=0;rounded=1;absoluteArcSize=1;arcSize=9;fillColor=#ffffff;dashed=1;fixDash=1;dashPattern=8 8;strokeWidth=NaN;container=1;pointerEvents=0;collapsible=0;recursiveResize=0;lucidId=XcTJNYtTWINg;" vertex="1" parent="1">
          <mxGeometry x="240" y="165" width="720" height="296" as="geometry" />
        </mxCell>
        <mxCell id="ah4166-5UXn88flBTKYX-2" value="" style="html=1;overflow=block;blockSpacing=1;whiteSpace=wrap;fontSize=16.7;spacing=0;strokeColor=#147eba;strokeOpacity=100;fillOpacity=0;rounded=1;absoluteArcSize=1;arcSize=9;fillColor=#ffffff;dashed=1;fixDash=1;dashPattern=8 8;strokeWidth=NaN;container=1;pointerEvents=0;collapsible=0;recursiveResize=0;lucidId=9eTJ03Qyjkym;" vertex="1" parent="1">
          <mxGeometry x="-465" y="540" width="600" height="1110" as="geometry" />
        </mxCell>
        <mxCell id="ah4166-5UXn88flBTKYX-67" value="" style="ellipse;whiteSpace=wrap;html=1;aspect=fixed;" vertex="1" parent="ah4166-5UXn88flBTKYX-2">
          <mxGeometry x="80" y="440" width="80" height="80" as="geometry" />
        </mxCell>
        <mxCell id="ah4166-5UXn88flBTKYX-3" value="" style="html=1;overflow=block;blockSpacing=1;whiteSpace=wrap;fontSize=16.7;spacing=0;strokeColor=#147eba;strokeOpacity=100;fillOpacity=0;rounded=1;absoluteArcSize=1;arcSize=9;fillColor=#ffffff;dashed=1;fixDash=1;dashPattern=8 8;strokeWidth=1.5;container=1;pointerEvents=0;collapsible=0;recursiveResize=0;lucidId=kfTJ84CEXyHU;" vertex="1" parent="1">
          <mxGeometry x="920" y="500" width="600" height="1110" as="geometry" />
        </mxCell>
        <mxCell id="ah4166-5UXn88flBTKYX-113" value="" style="whiteSpace=wrap;html=1;aspect=fixed;" vertex="1" parent="ah4166-5UXn88flBTKYX-3">
          <mxGeometry x="261" y="92.5" width="105" height="105" as="geometry" />
        </mxCell>
        <mxCell id="ah4166-5UXn88flBTKYX-111" value="" style="shape=cylinder3;whiteSpace=wrap;html=1;boundedLbl=1;backgroundOutline=1;size=15;" vertex="1" parent="ah4166-5UXn88flBTKYX-3">
          <mxGeometry x="206" y="240" width="230" height="170" as="geometry" />
        </mxCell>
        <mxCell id="ah4166-5UXn88flBTKYX-115" style="edgeStyle=orthogonalEdgeStyle;rounded=0;orthogonalLoop=1;jettySize=auto;html=1;" edge="1" parent="ah4166-5UXn88flBTKYX-3" source="ah4166-5UXn88flBTKYX-108" target="ah4166-5UXn88flBTKYX-110">
          <mxGeometry relative="1" as="geometry" />
        </mxCell>
        <mxCell id="ah4166-5UXn88flBTKYX-108" value="Regional Sync" style="html=1;overflow=block;blockSpacing=1;whiteSpace=wrap;fontSize=16.7;spacing=9;strokeColor=#unset;rounded=1;absoluteArcSize=1;arcSize=9;fillColor=none;strokeWidth=NaN;lucidId=8fTJhNe0HkOV;" vertex="1" parent="ah4166-5UXn88flBTKYX-3">
          <mxGeometry x="253.5" y="100" width="120" height="90" as="geometry" />
        </mxCell>
        <mxCell id="ah4166-5UXn88flBTKYX-110" value="Key-Value Store(ETCD/ZK)" style="html=1;overflow=block;blockSpacing=1;whiteSpace=wrap;shape=cylinder3;size=4;anchorPointDirection=0;boundedLbl=1;fontSize=16.7;spacing=3.8;strokeColor=#unset;rounded=1;absoluteArcSize=1;arcSize=9;fillColor=none;strokeWidth=NaN;lucidId=FgTJLBdUZkeu;" vertex="1" parent="ah4166-5UXn88flBTKYX-3">
          <mxGeometry x="238" y="240" width="165" height="165" as="geometry" />
        </mxCell>
        <mxCell id="ah4166-5UXn88flBTKYX-116" value="&lt;b&gt;&lt;font style=&quot;font-size: 20px;&quot;&gt;Host&lt;/font&gt;&lt;/b&gt;" style="ellipse;whiteSpace=wrap;html=1;aspect=fixed;" vertex="1" parent="ah4166-5UXn88flBTKYX-3">
          <mxGeometry x="140" y="590" width="80" height="80" as="geometry" />
        </mxCell>
        <mxCell id="ah4166-5UXn88flBTKYX-117" value="&lt;b&gt;&lt;font style=&quot;font-size: 20px;&quot;&gt;Host&lt;/font&gt;&lt;/b&gt;" style="ellipse;whiteSpace=wrap;html=1;aspect=fixed;" vertex="1" parent="ah4166-5UXn88flBTKYX-3">
          <mxGeometry x="140" y="750" width="80" height="80" as="geometry" />
        </mxCell>
        <mxCell id="ah4166-5UXn88flBTKYX-119" value="" style="endArrow=classic;html=1;rounded=0;" edge="1" parent="ah4166-5UXn88flBTKYX-3">
          <mxGeometry relative="1" as="geometry">
            <mxPoint x="280" y="630" as="sourcePoint" />
            <mxPoint x="440" y="630" as="targetPoint" />
          </mxGeometry>
        </mxCell>
        <mxCell id="ah4166-5UXn88flBTKYX-120" value="Label" style="edgeLabel;resizable=0;html=1;;align=center;verticalAlign=middle;" connectable="0" vertex="1" parent="ah4166-5UXn88flBTKYX-119">
          <mxGeometry relative="1" as="geometry" />
        </mxCell>
        <mxCell id="ah4166-5UXn88flBTKYX-121" value="Source" style="edgeLabel;resizable=0;html=1;;align=left;verticalAlign=bottom;" connectable="0" vertex="1" parent="ah4166-5UXn88flBTKYX-119">
          <mxGeometry x="-1" relative="1" as="geometry" />
        </mxCell>
        <mxCell id="ah4166-5UXn88flBTKYX-122" value="Target" style="edgeLabel;resizable=0;html=1;;align=right;verticalAlign=bottom;" connectable="0" vertex="1" parent="ah4166-5UXn88flBTKYX-119">
          <mxGeometry x="1" relative="1" as="geometry" />
        </mxCell>
        <mxCell id="ah4166-5UXn88flBTKYX-127" value="" style="endArrow=classic;html=1;rounded=0;" edge="1" parent="ah4166-5UXn88flBTKYX-3">
          <mxGeometry relative="1" as="geometry">
            <mxPoint x="310" y="790" as="sourcePoint" />
            <mxPoint x="470" y="790" as="targetPoint" />
          </mxGeometry>
        </mxCell>
        <mxCell id="ah4166-5UXn88flBTKYX-128" value="Label" style="edgeLabel;resizable=0;html=1;;align=center;verticalAlign=middle;" connectable="0" vertex="1" parent="ah4166-5UXn88flBTKYX-127">
          <mxGeometry relative="1" as="geometry" />
        </mxCell>
        <mxCell id="ah4166-5UXn88flBTKYX-129" value="Source" style="edgeLabel;resizable=0;html=1;;align=left;verticalAlign=bottom;" connectable="0" vertex="1" parent="ah4166-5UXn88flBTKYX-127">
          <mxGeometry x="-1" relative="1" as="geometry" />
        </mxCell>
        <mxCell id="ah4166-5UXn88flBTKYX-130" value="" style="endArrow=none;dashed=1;html=1;rounded=0;exitX=0.5;exitY=0;exitDx=0;exitDy=0;entryX=0.5;entryY=1;entryDx=0;entryDy=0;" edge="1" parent="ah4166-5UXn88flBTKYX-3" source="ah4166-5UXn88flBTKYX-117" target="ah4166-5UXn88flBTKYX-116">
          <mxGeometry width="50" height="50" relative="1" as="geometry">
            <mxPoint x="140" y="730" as="sourcePoint" />
            <mxPoint x="190" y="680" as="targetPoint" />
          </mxGeometry>
        </mxCell>
        <mxCell id="ah4166-5UXn88flBTKYX-131" style="edgeStyle=orthogonalEdgeStyle;rounded=0;orthogonalLoop=1;jettySize=auto;html=1;entryX=0.5;entryY=1;entryDx=0;entryDy=0;entryPerimeter=0;" edge="1" parent="ah4166-5UXn88flBTKYX-3" source="ah4166-5UXn88flBTKYX-116" target="ah4166-5UXn88flBTKYX-110">
          <mxGeometry relative="1" as="geometry" />
        </mxCell>
        <mxCell id="ah4166-5UXn88flBTKYX-132" value="&lt;b&gt;&lt;font style=&quot;font-size: 24px;&quot;&gt;Blob Storage&lt;/font&gt;&lt;/b&gt;" style="shape=cylinder3;whiteSpace=wrap;html=1;boundedLbl=1;backgroundOutline=1;size=15;" vertex="1" parent="ah4166-5UXn88flBTKYX-3">
          <mxGeometry x="230" y="910" width="280" height="160" as="geometry" />
        </mxCell>
        <mxCell id="ah4166-5UXn88flBTKYX-133" style="edgeStyle=orthogonalEdgeStyle;rounded=0;orthogonalLoop=1;jettySize=auto;html=1;entryX=0.145;entryY=0;entryDx=0;entryDy=4.35;entryPerimeter=0;" edge="1" parent="ah4166-5UXn88flBTKYX-3" source="ah4166-5UXn88flBTKYX-117" target="ah4166-5UXn88flBTKYX-132">
          <mxGeometry relative="1" as="geometry" />
        </mxCell>
        <mxCell id="ah4166-5UXn88flBTKYX-4" value="" style="html=1;overflow=block;blockSpacing=1;whiteSpace=wrap;fontSize=13;spacing=0;strokeColor=#147eba;strokeOpacity=100;fillOpacity=0;rounded=1;absoluteArcSize=1;arcSize=9;fillColor=#ffffff;dashed=1;fixDash=1;dashPattern=8 8;strokeWidth=NaN;container=1;pointerEvents=0;collapsible=0;recursiveResize=0;lucidId=5hTJ-ablC~vv;" vertex="1" parent="1">
          <mxGeometry x="-390" y="960" width="450" height="300" as="geometry" />
        </mxCell>
        <mxCell id="ah4166-5UXn88flBTKYX-84" style="edgeStyle=orthogonalEdgeStyle;rounded=0;orthogonalLoop=1;jettySize=auto;html=1;" edge="1" parent="1" source="ah4166-5UXn88flBTKYX-6" target="ah4166-5UXn88flBTKYX-10">
          <mxGeometry relative="1" as="geometry" />
        </mxCell>
        <mxCell id="ah4166-5UXn88flBTKYX-104" style="edgeStyle=orthogonalEdgeStyle;rounded=0;orthogonalLoop=1;jettySize=auto;html=1;exitX=0.5;exitY=1;exitDx=0;exitDy=0;" edge="1" parent="1" source="ah4166-5UXn88flBTKYX-6" target="ah4166-5UXn88flBTKYX-103">
          <mxGeometry relative="1" as="geometry" />
        </mxCell>
        <mxCell id="ah4166-5UXn88flBTKYX-6" value="Api Server" style="html=1;overflow=block;blockSpacing=1;whiteSpace=wrap;fontSize=16.7;spacing=9;strokeColor=#unset;rounded=1;absoluteArcSize=1;arcSize=9;fillColor=none;strokeWidth=18;lucidId=MbTJp_SRfkUx;glass=0;shadow=1;" vertex="1" parent="1">
          <mxGeometry x="690" y="240" width="120" height="90" as="geometry" />
        </mxCell>
        <mxCell id="ah4166-5UXn88flBTKYX-7" value="Key-Value Store(ETCD/ZK)" style="html=1;overflow=block;blockSpacing=1;whiteSpace=wrap;shape=cylinder3;size=4;anchorPointDirection=0;boundedLbl=1;fontSize=16.7;spacing=3.8;strokeColor=#unset;rounded=1;absoluteArcSize=1;arcSize=9;fillColor=none;strokeWidth=20;lucidId=7bTJj00QiW61;shadow=1;" vertex="1" parent="1">
          <mxGeometry x="360" y="225" width="165" height="165" as="geometry" />
        </mxCell>
        <mxCell id="ah4166-5UXn88flBTKYX-8" value="" style="html=1;jettySize=18;whiteSpace=wrap;fontSize=13;strokeColor=#3a414a;strokeOpacity=100;strokeWidth=0.8;rounded=1;arcSize=12;edgeStyle=orthogonalEdgeStyle;startArrow=none;endArrow=block;endFill=1;exitX=-0.006;exitY=0.5;exitPerimeter=0;entryX=1.005;entryY=0.5;entryPerimeter=0;lucidId=.bTJYdPR~9ku;" edge="1" parent="1" source="ah4166-5UXn88flBTKYX-6" target="ah4166-5UXn88flBTKYX-7">
          <mxGeometry width="100" height="100" relative="1" as="geometry">
            <Array as="points" />
          </mxGeometry>
        </mxCell>
        <mxCell id="ah4166-5UXn88flBTKYX-9" value="" style="html=1;jettySize=18;whiteSpace=wrap;fontSize=13;strokeColor=#3a414a;strokeOpacity=100;strokeWidth=0.8;rounded=1;arcSize=12;edgeStyle=orthogonalEdgeStyle;startArrow=none;endArrow=block;endFill=1;exitX=0.5;exitY=1.008;exitPerimeter=0;entryX=0.014;entryY=0.001;entryPerimeter=0;lucidId=rdTJbXBbUtfh;" edge="1" parent="1" target="ah4166-5UXn88flBTKYX-6">
          <mxGeometry width="100" height="100" relative="1" as="geometry">
            <Array as="points" />
            <mxPoint x="645" y="90.7199999999998" as="sourcePoint" />
          </mxGeometry>
        </mxCell>
        <mxCell id="ah4166-5UXn88flBTKYX-10" value="Regional Sync" style="html=1;overflow=block;blockSpacing=1;whiteSpace=wrap;fontSize=16.7;spacing=9;strokeColor=#unset;rounded=1;absoluteArcSize=1;arcSize=9;fillColor=none;strokeWidth=NaN;lucidId=8fTJhNe0HkOV;" vertex="1" parent="1">
          <mxGeometry x="-240" y="600" width="120" height="90" as="geometry" />
        </mxCell>
        <mxCell id="ah4166-5UXn88flBTKYX-11" value="Key-Value Store(ETCD/ZK)" style="html=1;overflow=block;blockSpacing=1;whiteSpace=wrap;shape=cylinder3;size=4;anchorPointDirection=0;boundedLbl=1;fontSize=16.7;spacing=3.8;strokeColor=#unset;rounded=1;absoluteArcSize=1;arcSize=9;fillColor=none;strokeWidth=NaN;lucidId=FgTJLBdUZkeu;" vertex="1" parent="1">
          <mxGeometry x="-247.5" y="752.5" width="165" height="165" as="geometry" />
        </mxCell>
        <mxCell id="ah4166-5UXn88flBTKYX-12" value="" style="html=1;jettySize=18;whiteSpace=wrap;fontSize=13;strokeColor=#3a414a;strokeOpacity=100;strokeWidth=0.8;rounded=1;arcSize=12;edgeStyle=orthogonalEdgeStyle;startArrow=none;endArrow=block;endFill=1;exitX=0.5;exitY=1.008;exitPerimeter=0;entryX=0.5;entryY=-0.005;entryPerimeter=0;lucidId=UgTJwAxcpUiL;" edge="1" parent="1" source="ah4166-5UXn88flBTKYX-10" target="ah4166-5UXn88flBTKYX-11">
          <mxGeometry width="100" height="100" relative="1" as="geometry">
            <Array as="points" />
          </mxGeometry>
        </mxCell>
        <mxCell id="ah4166-5UXn88flBTKYX-13" value="Host" style="html=1;overflow=block;blockSpacing=1;whiteSpace=wrap;ellipse;fontSize=16.7;spacing=3.8;strokeColor=#unset;rounded=1;absoluteArcSize=1;arcSize=9;fillColor=none;strokeWidth=NaN;lucidId=ohTJfVCBu_a8;" vertex="1" parent="1">
          <mxGeometry x="-375" y="990" width="60" height="60" as="geometry" />
        </mxCell>
        <mxCell id="ah4166-5UXn88flBTKYX-14" value="Host" style="html=1;overflow=block;blockSpacing=1;whiteSpace=wrap;ellipse;fontSize=16.7;spacing=3.8;strokeColor=#unset;rounded=1;absoluteArcSize=1;arcSize=9;fillColor=none;strokeWidth=NaN;lucidId=AhTJOw.urvIv;" vertex="1" parent="1">
          <mxGeometry x="-210" y="990" width="60" height="60" as="geometry" />
        </mxCell>
        <mxCell id="ah4166-5UXn88flBTKYX-15" value="Host" style="html=1;overflow=block;blockSpacing=1;whiteSpace=wrap;ellipse;fontSize=16.7;spacing=3.8;strokeColor=#unset;rounded=1;absoluteArcSize=1;arcSize=9;fillColor=none;strokeWidth=NaN;lucidId=FhTJtLsY3d7g;" vertex="1" parent="1">
          <mxGeometry x="-45" y="990" width="60" height="60" as="geometry" />
        </mxCell>
        <mxCell id="ah4166-5UXn88flBTKYX-16" value="Host" style="html=1;overflow=block;blockSpacing=1;whiteSpace=wrap;ellipse;fontSize=16.7;spacing=3.8;strokeColor=none;rounded=1;absoluteArcSize=1;arcSize=9;fillColor=none;strokeWidth=NaN;lucidId=JhTJcd8VLVNM;" vertex="1" parent="1">
          <mxGeometry x="-375" y="1125" width="60" height="60" as="geometry" />
        </mxCell>
        <mxCell id="ah4166-5UXn88flBTKYX-17" value="Host" style="html=1;overflow=block;blockSpacing=1;whiteSpace=wrap;ellipse;fontSize=16.7;spacing=3.8;strokeColor=#unset;rounded=1;absoluteArcSize=1;arcSize=9;fillColor=none;strokeWidth=NaN;lucidId=RhTJmsLVSuH3;" vertex="1" parent="1">
          <mxGeometry x="-210" y="1125" width="60" height="60" as="geometry" />
        </mxCell>
        <mxCell id="ah4166-5UXn88flBTKYX-18" value="Host" style="html=1;overflow=block;blockSpacing=1;whiteSpace=wrap;ellipse;fontSize=16.7;spacing=3.8;strokeColor=#unset;rounded=1;absoluteArcSize=1;arcSize=9;fillColor=none;strokeWidth=NaN;lucidId=YhTJ17MkqNxO;" vertex="1" parent="1">
          <mxGeometry x="-45" y="1125" width="60" height="60" as="geometry" />
        </mxCell>
        <mxCell id="ah4166-5UXn88flBTKYX-20" value="" style="html=1;jettySize=18;whiteSpace=wrap;fontSize=13;strokeColor=#3a414a;strokeOpacity=100;strokeWidth=0.8;rounded=1;arcSize=12;edgeStyle=orthogonalEdgeStyle;startArrow=none;endArrow=block;endFill=1;exitX=0.5;exitY=-0.013;exitPerimeter=0;entryX=0.5;entryY=1.005;entryPerimeter=0;lucidId=XiTJ.7uwRpm0;" edge="1" parent="1" source="ah4166-5UXn88flBTKYX-13" target="ah4166-5UXn88flBTKYX-11">
          <mxGeometry width="100" height="100" relative="1" as="geometry">
            <Array as="points" />
          </mxGeometry>
        </mxCell>
        <mxCell id="ah4166-5UXn88flBTKYX-21" value="" style="html=1;jettySize=18;whiteSpace=wrap;fontSize=13;strokeColor=#3a414a;strokeOpacity=100;strokeWidth=0.8;rounded=1;arcSize=12;edgeStyle=orthogonalEdgeStyle;startArrow=none;endArrow=block;endFill=1;exitX=0.5;exitY=-0.013;exitPerimeter=0;lucidId=4iTJFjJchBT6;" edge="1" parent="1" source="ah4166-5UXn88flBTKYX-14">
          <mxGeometry width="100" height="100" relative="1" as="geometry">
            <Array as="points" />
            <mxPoint x="-180" y="918" as="targetPoint" />
          </mxGeometry>
        </mxCell>
        <mxCell id="ah4166-5UXn88flBTKYX-22" value="" style="html=1;jettySize=18;whiteSpace=wrap;fontSize=13;strokeColor=#3a414a;strokeOpacity=100;strokeWidth=0.8;rounded=1;arcSize=12;edgeStyle=orthogonalEdgeStyle;startArrow=none;endArrow=block;endFill=1;exitX=0.5;exitY=-0.013;exitPerimeter=0;entryX=0.5;entryY=1.005;entryPerimeter=0;lucidId=9iTJHEWgMwSx;" edge="1" parent="1" source="ah4166-5UXn88flBTKYX-15" target="ah4166-5UXn88flBTKYX-11">
          <mxGeometry width="100" height="100" relative="1" as="geometry">
            <Array as="points" />
          </mxGeometry>
        </mxCell>
        <mxCell id="ah4166-5UXn88flBTKYX-23" value="" style="html=1;jettySize=18;whiteSpace=wrap;fontSize=13;strokeColor=#3a414a;strokeOpacity=100;strokeWidth=0.8;rounded=1;arcSize=12;edgeStyle=orthogonalEdgeStyle;startArrow=none;endArrow=block;endFill=1;lucidId=bkTJgDhiT6o_;" edge="1" parent="1">
          <mxGeometry width="100" height="100" relative="1" as="geometry">
            <Array as="points" />
            <mxPoint x="-300" y="1020" as="sourcePoint" />
            <mxPoint x="-240" y="1020" as="targetPoint" />
          </mxGeometry>
        </mxCell>
        <mxCell id="ah4166-5UXn88flBTKYX-24" value="" style="html=1;jettySize=18;whiteSpace=wrap;fontSize=13;strokeColor=#3a414a;strokeOpacity=100;strokeWidth=0.8;rounded=1;arcSize=12;edgeStyle=orthogonalEdgeStyle;startArrow=none;endArrow=block;endFill=1;lucidId=vkTJ~KFQG~He;" edge="1" parent="1">
          <mxGeometry width="100" height="100" relative="1" as="geometry">
            <Array as="points" />
            <mxPoint x="-127" y="1020" as="sourcePoint" />
            <mxPoint x="-67" y="1020" as="targetPoint" />
          </mxGeometry>
        </mxCell>
        <mxCell id="ah4166-5UXn88flBTKYX-25" value="" style="html=1;jettySize=18;whiteSpace=wrap;fontSize=13;strokeColor=#3a414a;strokeOpacity=100;strokeWidth=0.8;rounded=1;arcSize=12;edgeStyle=orthogonalEdgeStyle;startArrow=none;endArrow=block;endFill=1;lucidId=AkTJhh4m55l_;" edge="1" parent="1">
          <mxGeometry width="100" height="100" relative="1" as="geometry">
            <Array as="points" />
            <mxPoint x="-292" y="1155" as="sourcePoint" />
            <mxPoint x="-232" y="1155" as="targetPoint" />
          </mxGeometry>
        </mxCell>
        <mxCell id="ah4166-5UXn88flBTKYX-26" value="" style="html=1;jettySize=18;whiteSpace=wrap;fontSize=13;strokeColor=#3a414a;strokeOpacity=100;strokeWidth=0.8;rounded=1;arcSize=12;edgeStyle=orthogonalEdgeStyle;startArrow=none;endArrow=block;endFill=1;lucidId=NkTJVVI7G2E1;" edge="1" parent="1">
          <mxGeometry width="100" height="100" relative="1" as="geometry">
            <Array as="points" />
            <mxPoint x="-127" y="1155" as="sourcePoint" />
            <mxPoint x="-67" y="1155" as="targetPoint" />
          </mxGeometry>
        </mxCell>
        <mxCell id="ah4166-5UXn88flBTKYX-27" value="" style="html=1;jettySize=18;whiteSpace=wrap;fontSize=13;strokeColor=#3a414a;strokeOpacity=100;strokeWidth=0.8;rounded=1;arcSize=12;edgeStyle=orthogonalEdgeStyle;startArrow=none;endArrow=block;endFill=1;lucidId=ZkTJDKTN6svb;" edge="1" parent="1">
          <mxGeometry width="100" height="100" relative="1" as="geometry">
            <Array as="points" />
            <mxPoint x="-15" y="1095" as="sourcePoint" />
            <mxPoint x="-15" y="1065" as="targetPoint" />
          </mxGeometry>
        </mxCell>
        <mxCell id="ah4166-5UXn88flBTKYX-28" value="" style="html=1;jettySize=18;whiteSpace=wrap;fontSize=13;strokeColor=#3a414a;strokeOpacity=100;strokeWidth=0.8;rounded=1;arcSize=12;edgeStyle=orthogonalEdgeStyle;startArrow=none;endArrow=block;endFill=1;lucidId=~kTJIM0T_0OO;" edge="1" parent="1">
          <mxGeometry width="100" height="100" relative="1" as="geometry">
            <Array as="points" />
            <mxPoint x="-345" y="1065" as="sourcePoint" />
            <mxPoint x="-345" y="1110" as="targetPoint" />
          </mxGeometry>
        </mxCell>
        <mxCell id="ah4166-5UXn88flBTKYX-29" value="Blob Storage" style="html=1;overflow=block;blockSpacing=1;whiteSpace=wrap;shape=label;size=4;anchorPointDirection=0;boundedLbl=1;fontSize=16.7;spacing=3.8;strokeColor=#unset;rounded=1;absoluteArcSize=1;arcSize=9;fillColor=none;strokeWidth=NaN;lucidId=1lTJvv8EiWdt;aspect=fixed;" vertex="1" parent="1">
          <mxGeometry x="-225" y="1380" width="90" height="90" as="geometry" />
        </mxCell>
        <mxCell id="ah4166-5UXn88flBTKYX-30" value="" style="html=1;jettySize=18;whiteSpace=wrap;fontSize=13;strokeColor=#3a414a;strokeOpacity=100;strokeWidth=0.8;rounded=1;arcSize=12;edgeStyle=orthogonalEdgeStyle;startArrow=none;endArrow=block;endFill=1;exitX=0.5;exitY=1.013;exitPerimeter=0;entryX=0.5;entryY=-0.008;entryPerimeter=0;lucidId=emTJOTV5zqe3;" edge="1" parent="1" source="ah4166-5UXn88flBTKYX-16" target="ah4166-5UXn88flBTKYX-29">
          <mxGeometry width="100" height="100" relative="1" as="geometry">
            <Array as="points" />
          </mxGeometry>
        </mxCell>
        <mxCell id="ah4166-5UXn88flBTKYX-31" value="" style="html=1;jettySize=18;whiteSpace=wrap;fontSize=13;strokeColor=#3a414a;strokeOpacity=100;strokeWidth=0.8;rounded=1;arcSize=12;edgeStyle=orthogonalEdgeStyle;startArrow=none;endArrow=block;endFill=1;exitX=0.5;exitY=1.013;exitPerimeter=0;entryX=0.5;entryY=-0.008;entryPerimeter=0;lucidId=lmTJSdmld05s;" edge="1" parent="1" source="ah4166-5UXn88flBTKYX-17" target="ah4166-5UXn88flBTKYX-29">
          <mxGeometry width="100" height="100" relative="1" as="geometry">
            <Array as="points" />
          </mxGeometry>
        </mxCell>
        <mxCell id="ah4166-5UXn88flBTKYX-32" value="" style="html=1;jettySize=18;whiteSpace=wrap;fontSize=13;strokeColor=#3a414a;strokeOpacity=100;strokeWidth=0.8;rounded=1;arcSize=12;edgeStyle=orthogonalEdgeStyle;startArrow=none;endArrow=block;endFill=1;exitX=0.5;exitY=1.013;exitPerimeter=0;entryX=0.5;entryY=-0.008;entryPerimeter=0;lucidId=rmTJ6KnTF15A;" edge="1" parent="1" source="ah4166-5UXn88flBTKYX-18" target="ah4166-5UXn88flBTKYX-29">
          <mxGeometry width="100" height="100" relative="1" as="geometry">
            <Array as="points" />
          </mxGeometry>
        </mxCell>
        <mxCell id="ah4166-5UXn88flBTKYX-33" value="Worker" style="html=1;overflow=block;blockSpacing=1;whiteSpace=wrap;ellipse;fontSize=16.7;spacing=3.8;strokeColor=#unset;rounded=1;absoluteArcSize=1;arcSize=9;fillColor=none;strokeWidth=NaN;lucidId=2mTJAwFEl2lN;" vertex="1" parent="1">
          <mxGeometry x="-450" y="1785" width="60" height="60" as="geometry" />
        </mxCell>
        <mxCell id="ah4166-5UXn88flBTKYX-34" value="Worker" style="html=1;overflow=block;blockSpacing=1;whiteSpace=wrap;ellipse;fontSize=16.7;spacing=3.8;strokeColor=#unset;rounded=1;absoluteArcSize=1;arcSize=9;fillColor=none;strokeWidth=NaN;lucidId=fnTJZZEgN62~;" vertex="1" parent="1">
          <mxGeometry x="-330" y="1785" width="60" height="60" as="geometry" />
        </mxCell>
        <mxCell id="ah4166-5UXn88flBTKYX-35" value="Worker" style="html=1;overflow=block;blockSpacing=1;whiteSpace=wrap;ellipse;fontSize=16.7;spacing=3.8;strokeColor=#unset;rounded=1;absoluteArcSize=1;arcSize=9;fillColor=none;strokeWidth=NaN;lucidId=jnTJp3AOx4G7;" vertex="1" parent="1">
          <mxGeometry x="-210" y="1785" width="60" height="60" as="geometry" />
        </mxCell>
        <mxCell id="ah4166-5UXn88flBTKYX-36" value="Worker" style="html=1;overflow=block;blockSpacing=1;whiteSpace=wrap;ellipse;fontSize=16.7;spacing=3.8;strokeColor=#unset;rounded=1;absoluteArcSize=1;arcSize=9;fillColor=none;strokeWidth=NaN;lucidId=mnTJK9Kg63Uo;" vertex="1" parent="1">
          <mxGeometry x="30" y="1785" width="60" height="60" as="geometry" />
        </mxCell>
        <mxCell id="ah4166-5UXn88flBTKYX-37" value="Worker" style="html=1;overflow=block;blockSpacing=1;whiteSpace=wrap;ellipse;fontSize=16.7;spacing=3.8;strokeColor=#unset;rounded=1;absoluteArcSize=1;arcSize=9;fillColor=none;strokeWidth=NaN;lucidId=nnTJ61jW4NTp;" vertex="1" parent="1">
          <mxGeometry x="150" y="1785" width="60" height="60" as="geometry" />
        </mxCell>
        <mxCell id="ah4166-5UXn88flBTKYX-38" value="Worker" style="html=1;overflow=block;blockSpacing=1;whiteSpace=wrap;ellipse;fontSize=16.7;spacing=3.8;strokeColor=#unset;rounded=1;absoluteArcSize=1;arcSize=9;fillColor=none;strokeWidth=NaN;lucidId=nnTJ9QxkZAe8;" vertex="1" parent="1">
          <mxGeometry x="270" y="1785" width="60" height="60" as="geometry" />
        </mxCell>
        <mxCell id="ah4166-5UXn88flBTKYX-39" value="" style="html=1;jettySize=18;whiteSpace=wrap;fontSize=13;strokeColor=#3a414a;strokeOpacity=100;strokeWidth=0.8;rounded=1;arcSize=12;edgeStyle=orthogonalEdgeStyle;startArrow=none;endArrow=block;endFill=1;lucidId=znTJTeTCc.8z;" edge="1" parent="1">
          <mxGeometry width="100" height="100" relative="1" as="geometry">
            <Array as="points" />
            <mxPoint x="-90" y="1815" as="sourcePoint" />
            <mxPoint x="-15" y="1815" as="targetPoint" />
          </mxGeometry>
        </mxCell>
        <mxCell id="ah4166-5UXn88flBTKYX-40" value="100X" style="html=1;overflow=block;blockSpacing=1;whiteSpace=wrap;fontSize=16.7;spacing=0;strokeColor=#unset;rounded=1;absoluteArcSize=1;arcSize=9;fillColor=none;strokeWidth=NaN;lucidId=QnTJ3aY18wmY;" vertex="1" parent="1">
          <mxGeometry x="-135" y="1770" width="180" height="45" as="geometry" />
        </mxCell>
        <mxCell id="ah4166-5UXn88flBTKYX-41" value="" style="html=1;jettySize=18;whiteSpace=wrap;fontSize=13;strokeColor=#3a414a;strokeOpacity=100;strokeWidth=0.8;rounded=1;arcSize=12;edgeStyle=orthogonalEdgeStyle;startArrow=none;endArrow=block;endFill=1;exitX=0.5;exitY=-0.013;exitPerimeter=0;entryX=0.5;entryY=1.008;entryPerimeter=0;lucidId=_nTJsoHEWWmP;" edge="1" parent="1" source="ah4166-5UXn88flBTKYX-33" target="ah4166-5UXn88flBTKYX-29">
          <mxGeometry width="100" height="100" relative="1" as="geometry">
            <Array as="points" />
          </mxGeometry>
        </mxCell>
        <mxCell id="ah4166-5UXn88flBTKYX-42" value="" style="html=1;jettySize=18;whiteSpace=wrap;fontSize=13;strokeColor=#3a414a;strokeOpacity=100;strokeWidth=0.8;rounded=1;arcSize=12;edgeStyle=orthogonalEdgeStyle;startArrow=none;endArrow=block;endFill=1;exitX=0.5;exitY=-0.013;exitPerimeter=0;entryX=0.5;entryY=1.008;entryPerimeter=0;lucidId=coTJAycsjB.x;" edge="1" parent="1" source="ah4166-5UXn88flBTKYX-34" target="ah4166-5UXn88flBTKYX-29">
          <mxGeometry width="100" height="100" relative="1" as="geometry">
            <Array as="points" />
          </mxGeometry>
        </mxCell>
        <mxCell id="ah4166-5UXn88flBTKYX-43" value="" style="html=1;jettySize=18;whiteSpace=wrap;fontSize=13;strokeColor=#3a414a;strokeOpacity=100;strokeWidth=0.8;rounded=1;arcSize=12;edgeStyle=orthogonalEdgeStyle;startArrow=none;endArrow=block;endFill=1;exitX=0.5;exitY=-0.013;exitPerimeter=0;entryX=0.5;entryY=1.008;entryPerimeter=0;lucidId=loTJfOVRFA85;" edge="1" parent="1" source="ah4166-5UXn88flBTKYX-35" target="ah4166-5UXn88flBTKYX-29">
          <mxGeometry width="100" height="100" relative="1" as="geometry">
            <Array as="points" />
          </mxGeometry>
        </mxCell>
        <mxCell id="ah4166-5UXn88flBTKYX-44" value="" style="html=1;jettySize=18;whiteSpace=wrap;fontSize=13;strokeColor=#3a414a;strokeOpacity=100;strokeWidth=0.8;rounded=1;arcSize=12;edgeStyle=orthogonalEdgeStyle;startArrow=none;endArrow=block;endFill=1;exitX=0.5;exitY=-0.013;exitPerimeter=0;entryX=0.5;entryY=1.008;entryPerimeter=0;lucidId=qoTJyCc1~BHn;" edge="1" parent="1" source="ah4166-5UXn88flBTKYX-36" target="ah4166-5UXn88flBTKYX-29">
          <mxGeometry width="100" height="100" relative="1" as="geometry">
            <Array as="points" />
          </mxGeometry>
        </mxCell>
        <mxCell id="ah4166-5UXn88flBTKYX-45" value="" style="html=1;jettySize=18;whiteSpace=wrap;fontSize=13;strokeColor=#3a414a;strokeOpacity=100;strokeWidth=0.8;rounded=1;arcSize=12;edgeStyle=orthogonalEdgeStyle;startArrow=none;endArrow=block;endFill=1;exitX=0.5;exitY=-0.013;exitPerimeter=0;entryX=0.5;entryY=1.008;entryPerimeter=0;lucidId=voTJ71rmNRr_;" edge="1" parent="1" source="ah4166-5UXn88flBTKYX-37" target="ah4166-5UXn88flBTKYX-29">
          <mxGeometry width="100" height="100" relative="1" as="geometry">
            <Array as="points" />
          </mxGeometry>
        </mxCell>
        <mxCell id="ah4166-5UXn88flBTKYX-46" value="" style="html=1;jettySize=18;whiteSpace=wrap;fontSize=13;strokeColor=#3a414a;strokeOpacity=100;strokeWidth=0.8;rounded=1;arcSize=12;edgeStyle=orthogonalEdgeStyle;startArrow=none;endArrow=block;endFill=1;exitX=0.5;exitY=-0.013;exitPerimeter=0;entryX=0.5;entryY=1.008;entryPerimeter=0;lucidId=BoTJV02q6yBC;" edge="1" parent="1" source="ah4166-5UXn88flBTKYX-38" target="ah4166-5UXn88flBTKYX-29">
          <mxGeometry width="100" height="100" relative="1" as="geometry">
            <Array as="points" />
          </mxGeometry>
        </mxCell>
        <mxCell id="ah4166-5UXn88flBTKYX-47" value="SQL Database" style="html=1;overflow=block;blockSpacing=1;whiteSpace=wrap;shape=cylinder3;size=4;anchorPointDirection=0;boundedLbl=1;fontSize=16.7;spacing=3.8;strokeColor=#unset;rounded=1;absoluteArcSize=1;arcSize=9;fillColor=none;strokeWidth=NaN;lucidId=UoTJYI.NEa0o;" vertex="1" parent="1">
          <mxGeometry x="-105" y="1980" width="90" height="90" as="geometry" />
        </mxCell>
        <mxCell id="ah4166-5UXn88flBTKYX-48" value="" style="html=1;jettySize=18;whiteSpace=wrap;fontSize=13;strokeColor=#3a414a;strokeOpacity=100;strokeWidth=0.8;rounded=1;arcSize=12;edgeStyle=orthogonalEdgeStyle;startArrow=none;endArrow=block;endFill=1;exitX=0.5;exitY=1.013;exitPerimeter=0;entryX=0.228;entryY=0.009;entryPerimeter=0;lucidId=.oTJGD9H9WEB;" edge="1" parent="1" source="ah4166-5UXn88flBTKYX-33" target="ah4166-5UXn88flBTKYX-47">
          <mxGeometry width="100" height="100" relative="1" as="geometry">
            <Array as="points" />
          </mxGeometry>
        </mxCell>
        <mxCell id="ah4166-5UXn88flBTKYX-49" value="" style="html=1;jettySize=18;whiteSpace=wrap;fontSize=13;strokeColor=#3a414a;strokeOpacity=100;strokeWidth=0.8;rounded=1;arcSize=12;edgeStyle=orthogonalEdgeStyle;startArrow=none;endArrow=block;endFill=1;exitX=0.5;exitY=1.013;exitPerimeter=0;entryX=0.228;entryY=0.009;entryPerimeter=0;lucidId=epTJ_1w.hc2m;" edge="1" parent="1" source="ah4166-5UXn88flBTKYX-34" target="ah4166-5UXn88flBTKYX-47">
          <mxGeometry width="100" height="100" relative="1" as="geometry">
            <Array as="points" />
          </mxGeometry>
        </mxCell>
        <mxCell id="ah4166-5UXn88flBTKYX-50" value="" style="html=1;jettySize=18;whiteSpace=wrap;fontSize=13;strokeColor=#3a414a;strokeOpacity=100;strokeWidth=0.8;rounded=1;arcSize=12;edgeStyle=orthogonalEdgeStyle;startArrow=none;endArrow=block;endFill=1;exitX=0.5;exitY=1.013;exitPerimeter=0;entryX=0.228;entryY=0.009;entryPerimeter=0;lucidId=kpTJMMBL3k6U;" edge="1" parent="1" source="ah4166-5UXn88flBTKYX-35" target="ah4166-5UXn88flBTKYX-47">
          <mxGeometry width="100" height="100" relative="1" as="geometry">
            <Array as="points" />
          </mxGeometry>
        </mxCell>
        <mxCell id="ah4166-5UXn88flBTKYX-51" value="" style="html=1;jettySize=18;whiteSpace=wrap;fontSize=13;strokeColor=#3a414a;strokeOpacity=100;strokeWidth=0.8;rounded=1;arcSize=12;edgeStyle=orthogonalEdgeStyle;startArrow=none;endArrow=block;endFill=1;exitX=0.5;exitY=1.013;exitPerimeter=0;entryX=0.228;entryY=0.009;entryPerimeter=0;lucidId=opTJzOED8ZX1;" edge="1" parent="1" source="ah4166-5UXn88flBTKYX-36" target="ah4166-5UXn88flBTKYX-47">
          <mxGeometry width="100" height="100" relative="1" as="geometry">
            <Array as="points" />
          </mxGeometry>
        </mxCell>
        <mxCell id="ah4166-5UXn88flBTKYX-52" value="" style="html=1;jettySize=18;whiteSpace=wrap;fontSize=13;strokeColor=#3a414a;strokeOpacity=100;strokeWidth=0.8;rounded=1;arcSize=12;edgeStyle=orthogonalEdgeStyle;startArrow=none;endArrow=block;endFill=1;exitX=0.5;exitY=1.013;exitPerimeter=0;entryX=0.228;entryY=0.009;entryPerimeter=0;lucidId=tpTJ20dGpoxG;" edge="1" parent="1" source="ah4166-5UXn88flBTKYX-37" target="ah4166-5UXn88flBTKYX-47">
          <mxGeometry width="100" height="100" relative="1" as="geometry">
            <Array as="points" />
          </mxGeometry>
        </mxCell>
        <mxCell id="ah4166-5UXn88flBTKYX-53" value="" style="html=1;jettySize=18;whiteSpace=wrap;fontSize=13;strokeColor=#3a414a;strokeOpacity=100;strokeWidth=0.8;rounded=1;arcSize=12;edgeStyle=orthogonalEdgeStyle;startArrow=none;endArrow=block;endFill=1;exitX=0.5;exitY=1.013;exitPerimeter=0;entryX=0.228;entryY=0.009;entryPerimeter=0;lucidId=ypTJ3JRpi155;" edge="1" parent="1" source="ah4166-5UXn88flBTKYX-38" target="ah4166-5UXn88flBTKYX-47">
          <mxGeometry width="100" height="100" relative="1" as="geometry">
            <Array as="points" />
          </mxGeometry>
        </mxCell>
        <mxCell id="ah4166-5UXn88flBTKYX-54" value="Api Server" style="html=1;overflow=block;blockSpacing=1;whiteSpace=wrap;fontSize=16.7;spacing=3.8;strokeColor=#unset;rounded=1;absoluteArcSize=1;arcSize=9;fillColor=none;strokeWidth=NaN;lucidId=9pTJPf8567FN;" vertex="1" parent="1">
          <mxGeometry x="-450" y="2130" width="120" height="60" as="geometry" />
        </mxCell>
        <mxCell id="ah4166-5UXn88flBTKYX-55" value="Api Server" style="html=1;overflow=block;blockSpacing=1;whiteSpace=wrap;fontSize=16.7;spacing=3.8;strokeColor=#unset;rounded=1;absoluteArcSize=1;arcSize=9;fillColor=none;strokeWidth=NaN;lucidId=dqTJ9VIkjEQ6;" vertex="1" parent="1">
          <mxGeometry x="-180" y="2130" width="120" height="60" as="geometry" />
        </mxCell>
        <mxCell id="ah4166-5UXn88flBTKYX-56" value="Api Server" style="html=1;overflow=block;blockSpacing=1;whiteSpace=wrap;fontSize=16.7;spacing=3.8;strokeColor=#unset;rounded=1;absoluteArcSize=1;arcSize=9;fillColor=none;strokeWidth=NaN;lucidId=iqTJ~KhT.r7h;" vertex="1" parent="1">
          <mxGeometry x="90" y="2130" width="120" height="60" as="geometry" />
        </mxCell>
        <mxCell id="ah4166-5UXn88flBTKYX-57" value="" style="html=1;jettySize=18;whiteSpace=wrap;fontSize=13;strokeColor=#3a414a;strokeOpacity=100;strokeWidth=0.8;rounded=1;arcSize=12;edgeStyle=orthogonalEdgeStyle;startArrow=none;endArrow=block;endFill=1;exitX=0.5;exitY=-0.012;exitPerimeter=0;entryX=0.313;entryY=1.001;entryPerimeter=0;lucidId=mqTJ~SyBARxP;" edge="1" parent="1" source="ah4166-5UXn88flBTKYX-54" target="ah4166-5UXn88flBTKYX-47">
          <mxGeometry width="100" height="100" relative="1" as="geometry">
            <Array as="points" />
          </mxGeometry>
        </mxCell>
        <mxCell id="ah4166-5UXn88flBTKYX-58" value="" style="html=1;jettySize=18;whiteSpace=wrap;fontSize=13;strokeColor=#3a414a;strokeOpacity=100;strokeWidth=0.8;rounded=1;arcSize=12;edgeStyle=orthogonalEdgeStyle;startArrow=none;endArrow=block;endFill=1;exitX=0.5;exitY=-0.013;exitPerimeter=0;entryX=0.484;entryY=1.008;entryPerimeter=0;lucidId=MqTJvlxlUJCD;" edge="1" parent="1" source="ah4166-5UXn88flBTKYX-55" target="ah4166-5UXn88flBTKYX-47">
          <mxGeometry width="100" height="100" relative="1" as="geometry">
            <Array as="points" />
          </mxGeometry>
        </mxCell>
        <mxCell id="ah4166-5UXn88flBTKYX-59" value="" style="html=1;jettySize=18;whiteSpace=wrap;fontSize=13;strokeColor=#3a414a;strokeOpacity=100;strokeWidth=0.8;rounded=1;arcSize=12;edgeStyle=orthogonalEdgeStyle;startArrow=none;endArrow=block;endFill=1;exitX=0.5;exitY=-0.012;exitPerimeter=0;entryX=0.5;entryY=1.008;entryPerimeter=0;lucidId=UqTJs_zBeROm;" edge="1" parent="1" source="ah4166-5UXn88flBTKYX-56" target="ah4166-5UXn88flBTKYX-47">
          <mxGeometry width="100" height="100" relative="1" as="geometry">
            <Array as="points" />
          </mxGeometry>
        </mxCell>
        <mxCell id="ah4166-5UXn88flBTKYX-60" value="Load Balancing&#xa;Round Robin" style="html=1;overflow=block;blockSpacing=1;whiteSpace=wrap;fontSize=16.7;spacing=9;strokeColor=#unset;rounded=1;absoluteArcSize=1;arcSize=9;fillColor=none;strokeWidth=NaN;lucidId=0qTJqQFnT9h-;" vertex="1" parent="1">
          <mxGeometry x="-180" y="2310" width="120" height="75" as="geometry" />
        </mxCell>
        <mxCell id="ah4166-5UXn88flBTKYX-61" value="&lt;b&gt;&lt;font style=&quot;font-size: 14px;&quot;&gt;Build Code&lt;/font&gt;&lt;/b&gt;" style="rounded=0;whiteSpace=wrap;html=1;" vertex="1" parent="1">
          <mxGeometry x="620" y="30" width="120" height="60" as="geometry" />
        </mxCell>
        <mxCell id="ah4166-5UXn88flBTKYX-69" value="Peer 2 peer Network" style="html=1;overflow=block;blockSpacing=1;whiteSpace=wrap;fontSize=16.7;spacing=0;strokeColor=#unset;rounded=1;absoluteArcSize=1;arcSize=9;fillColor=none;strokeWidth=NaN;lucidId=jiTJdK0MhtCo;" vertex="1" parent="1">
          <mxGeometry x="-255" y="1060" width="180" height="45" as="geometry" />
        </mxCell>
        <mxCell id="ah4166-5UXn88flBTKYX-98" style="edgeStyle=orthogonalEdgeStyle;rounded=0;orthogonalLoop=1;jettySize=auto;html=1;entryX=0.654;entryY=1.021;entryDx=0;entryDy=0;entryPerimeter=0;" edge="1" parent="1" source="ah4166-5UXn88flBTKYX-97" target="ah4166-5UXn88flBTKYX-54">
          <mxGeometry relative="1" as="geometry" />
        </mxCell>
        <mxCell id="ah4166-5UXn88flBTKYX-99" style="edgeStyle=orthogonalEdgeStyle;rounded=0;orthogonalLoop=1;jettySize=auto;html=1;exitX=0.5;exitY=0;exitDx=0;exitDy=0;entryX=0.385;entryY=1.002;entryDx=0;entryDy=0;entryPerimeter=0;" edge="1" parent="1" source="ah4166-5UXn88flBTKYX-97" target="ah4166-5UXn88flBTKYX-55">
          <mxGeometry relative="1" as="geometry" />
        </mxCell>
        <mxCell id="ah4166-5UXn88flBTKYX-100" style="edgeStyle=orthogonalEdgeStyle;rounded=0;orthogonalLoop=1;jettySize=auto;html=1;exitX=1;exitY=0.25;exitDx=0;exitDy=0;entryX=0.154;entryY=1.06;entryDx=0;entryDy=0;entryPerimeter=0;" edge="1" parent="1" source="ah4166-5UXn88flBTKYX-60" target="ah4166-5UXn88flBTKYX-56">
          <mxGeometry relative="1" as="geometry" />
        </mxCell>
        <mxCell id="ah4166-5UXn88flBTKYX-101" value="&lt;b&gt;&lt;font style=&quot;font-size: 18px;&quot;&gt;Create Build&lt;/font&gt;&lt;/b&gt;" style="rounded=1;whiteSpace=wrap;html=1;" vertex="1" parent="1">
          <mxGeometry x="-235" y="2500" width="250" height="60" as="geometry" />
        </mxCell>
        <mxCell id="ah4166-5UXn88flBTKYX-102" style="edgeStyle=orthogonalEdgeStyle;rounded=0;orthogonalLoop=1;jettySize=auto;html=1;entryX=0.587;entryY=0.977;entryDx=0;entryDy=0;entryPerimeter=0;" edge="1" parent="1" source="ah4166-5UXn88flBTKYX-101" target="ah4166-5UXn88flBTKYX-97">
          <mxGeometry relative="1" as="geometry" />
        </mxCell>
        <mxCell id="ah4166-5UXn88flBTKYX-103" value="&lt;font style=&quot;font-size: 26px;&quot;&gt;&lt;b style=&quot;&quot;&gt;Build Replication Status&lt;/b&gt;&lt;/font&gt;" style="shape=cylinder3;whiteSpace=wrap;html=1;boundedLbl=1;backgroundOutline=1;size=15;" vertex="1" parent="1">
          <mxGeometry x="330" y="600" width="350" height="430" as="geometry" />
        </mxCell>
        <mxCell id="ah4166-5UXn88flBTKYX-107" style="edgeStyle=orthogonalEdgeStyle;rounded=0;orthogonalLoop=1;jettySize=auto;html=1;exitX=0;exitY=0.5;exitDx=0;exitDy=0;entryX=1;entryY=0.5;entryDx=0;entryDy=0;" edge="1" parent="1" source="ah4166-5UXn88flBTKYX-105" target="ah4166-5UXn88flBTKYX-29">
          <mxGeometry relative="1" as="geometry" />
        </mxCell>
        <mxCell id="ah4166-5UXn88flBTKYX-105" value="&lt;b&gt;&lt;font style=&quot;font-size: 24px;&quot;&gt;Replication Manager&lt;/font&gt;&lt;/b&gt;" style="rounded=0;whiteSpace=wrap;html=1;" vertex="1" parent="1">
          <mxGeometry x="292" y="1270" width="426" height="160" as="geometry" />
        </mxCell>
        <mxCell id="ah4166-5UXn88flBTKYX-106" style="edgeStyle=orthogonalEdgeStyle;rounded=0;orthogonalLoop=1;jettySize=auto;html=1;entryX=0.5;entryY=1;entryDx=0;entryDy=0;entryPerimeter=0;" edge="1" parent="1" source="ah4166-5UXn88flBTKYX-105" target="ah4166-5UXn88flBTKYX-103">
          <mxGeometry relative="1" as="geometry" />
        </mxCell>
        <mxCell id="ah4166-5UXn88flBTKYX-114" style="edgeStyle=orthogonalEdgeStyle;rounded=0;orthogonalLoop=1;jettySize=auto;html=1;entryX=0.75;entryY=1;entryDx=0;entryDy=0;" edge="1" parent="1" source="ah4166-5UXn88flBTKYX-108" target="ah4166-5UXn88flBTKYX-6">
          <mxGeometry relative="1" as="geometry" />
        </mxCell>
        <mxCell id="ah4166-5UXn88flBTKYX-134" style="edgeStyle=orthogonalEdgeStyle;rounded=0;orthogonalLoop=1;jettySize=auto;html=1;entryX=0;entryY=0;entryDx=0;entryDy=47.5;entryPerimeter=0;" edge="1" parent="1" source="ah4166-5UXn88flBTKYX-105" target="ah4166-5UXn88flBTKYX-132">
          <mxGeometry relative="1" as="geometry" />
        </mxCell>
      </root>
    </mxGraphModel>
  </diagram>
</mxfile>
